<?xml version="1.0" standalone="no"?><svg xmlns="http://www.w3.org/2000/svg" viewBox="0 0 1440 320"><path fill="#0099ff" fill-opacity="1" d="M0,96L21.8,122.7C43.6,149,87,203,131,186.7C174.5,171,218,85,262,85.3C305.5,85,349,171,393,170.7C436.4,171,480,85,524,64C567.3,43,611,85,655,101.3C698.2,117,742,107,785,101.3C829.1,96,873,96,916,112C960,128,1004,160,1047,186.7C1090.9,213,1135,235,1178,218.7C1221.8,203,1265,149,1309,160C1352.7,171,1396,245,1418,282.7L1440,320L1440,0L1418.2,0C1396.4,0,1353,0,1309,0C1265.5,0,1222,0,1178,0C1134.5,0,1091,0,1047,0C1003.6,0,960,0,916,0C872.7,0,829,0,785,0C741.8,0,698,0,655,0C610.9,0,567,0,524,0C480,0,436,0,393,0C349.1,0,305,0,262,0C218.2,0,175,0,131,0C87.3,0,44,0,22,0L0,0Z"></path></svg>